<svg width="285" height="45" viewBox="0 0 285 45" fill="none" xmlns="http://www.w3.org/2000/svg">
<path d="M109.641 31H106.617L112.377 15.952H115.353L121.017 31H117.993L116.913 27.928H110.697L109.641 31ZM113.793 18.712C113.617 19.32 113.417 19.96 113.193 20.632C112.985 21.304 112.785 21.928 112.593 22.504L111.537 25.552H116.073L115.017 22.504C114.841 21.992 114.641 21.4 114.417 20.728C114.193 20.04 113.985 19.368 113.793 18.712ZM129.787 31H124.963V15.952H129.787C131.323 15.952 132.539 16.08 133.435 16.336C134.347 16.592 135.075 17 135.619 17.56C136.163 18.12 136.555 18.88 136.795 19.84C137.051 20.784 137.179 21.992 137.179 23.464C137.179 26.072 136.595 27.984 135.427 29.2C134.259 30.4 132.379 31 129.787 31ZM133.411 19.648C133.107 19.248 132.683 18.968 132.139 18.808C131.595 18.632 130.811 18.544 129.787 18.544H127.843V28.288H129.787C131.515 28.288 132.683 27.936 133.291 27.232C133.899 26.528 134.203 25.272 134.203 23.464C134.203 22.504 134.139 21.72 134.011 21.112C133.883 20.504 133.683 20.016 133.411 19.648ZM156.488 15.952V31H153.776V20.56L150.344 28.048H147.968L144.56 20.536V31H141.848V15.952H145.4L149.216 24.52L153.056 15.952H156.488ZM164.659 15.952V31H161.779V15.952H164.659ZM182.592 15.952V31H179.784L172.656 20.8V31H169.944V15.952H172.752L179.904 26.392V15.952H182.592Z" fill="#E8A937"/>
<path d="M0 0V-3H-3V0H0ZM285 0H288V-3H285V0ZM285 45V48H288V45H285ZM0 45H-3V48H0V45ZM0 3H285V-3H0V3ZM282 0V45H288V0H282ZM285 42H0V48H285V42ZM3 45V0H-3V45H3Z" fill="#E8A937"/>
</svg>
