<svg width="51" height="44" viewBox="0 0 51 44" fill="none" xmlns="http://www.w3.org/2000/svg">
<line x1="11.0926" y1="18.0242" x2="37.3612" y2="18.0242" stroke="#E8A937"/>
<line x1="11.1042" y1="23.8978" x2="37.3729" y2="23.8978" stroke="#E8A937"/>
<line x1="11.1042" y1="29.3185" x2="37.3729" y2="29.3185" stroke="#E8A937"/>
<path d="M15.5324 12.18C15.5324 12.82 15.3524 13.2833 14.9924 13.57C14.6324 13.8567 14.0624 14 13.2824 14H10.8324V7.73H13.2824C13.9891 7.73 14.4891 7.85 14.7824 8.09C15.0824 8.33 15.2324 8.74 15.2324 9.32C15.2324 9.71333 15.1724 10.0133 15.0524 10.22C14.9324 10.4267 14.7124 10.5767 14.3924 10.67C14.7724 10.7367 15.0558 10.8967 15.2424 11.15C15.4358 11.3967 15.5324 11.74 15.5324 12.18ZM14.1224 9.49C14.1224 9.20333 14.0591 9.00667 13.9324 8.9C13.8124 8.78667 13.5958 8.73 13.2824 8.73H12.0324V10.35H13.2824C13.5824 10.35 13.7958 10.2833 13.9224 10.15C14.0558 10.0167 14.1224 9.79667 14.1224 9.49ZM14.3724 12.1C14.3724 11.7933 14.2891 11.58 14.1224 11.46C13.9624 11.34 13.6824 11.28 13.2824 11.28H12.0324V12.96H13.2824C13.6824 12.96 13.9624 12.8967 14.1224 12.77C14.2891 12.6433 14.3724 12.42 14.3724 12.1ZM17.6184 7.73V14H16.4184V7.73H17.6184ZM22.7407 12.87V14H18.8207V7.73H20.0207V12.87H22.7407ZM27.4087 12.87V14H23.4887V7.73H24.6887V12.87H27.4087ZM30.5566 11.51L29.1666 11.18C28.7066 11.0733 28.3833 10.9 28.1966 10.66C28.01 10.4133 27.9166 10.0633 27.9166 9.61C27.9166 8.93 28.1033 8.43 28.4766 8.11C28.85 7.79 29.43 7.63 30.2166 7.63C30.5433 7.63 30.8333 7.64667 31.0866 7.68C31.3466 7.70667 31.5866 7.75 31.8066 7.81V8.89C31.4266 8.81667 31.1233 8.77 30.8966 8.75C30.67 8.72333 30.4366 8.71 30.1966 8.71C29.7966 8.71 29.5133 8.77333 29.3466 8.9C29.18 9.02 29.0966 9.23 29.0966 9.53C29.0966 9.70333 29.13 9.83667 29.1966 9.93C29.27 10.0167 29.39 10.08 29.5566 10.12L30.9066 10.44C31.22 10.5133 31.4533 10.59 31.6066 10.67C31.76 10.7433 31.8866 10.8367 31.9866 10.95C32.0866 11.0767 32.16 11.2333 32.2066 11.42C32.26 11.6067 32.2866 11.8367 32.2866 12.11C32.2866 12.8167 32.1 13.3233 31.7266 13.63C31.3533 13.9367 30.7733 14.09 29.9866 14.09C29.58 14.09 29.1866 14.0633 28.8066 14.01C28.4333 13.9567 28.14 13.89 27.9266 13.81V12.68C28.2133 12.7667 28.5366 12.8367 28.8966 12.89C29.2633 12.9367 29.6266 12.96 29.9866 12.96C30.38 12.96 30.6533 12.9067 30.8066 12.8C30.9666 12.6867 31.0466 12.47 31.0466 12.15C31.0466 11.95 31.0133 11.8067 30.9466 11.72C30.8866 11.6267 30.7566 11.5567 30.5566 11.51Z" fill="#E8A937"/>
<mask id="path-5-inside-1" fill="white">
<rect width="50.6074" height="43.3738" rx="4"/>
</mask>
<rect width="50.6074" height="43.3738" rx="4" stroke="#E8A937" stroke-width="10" mask="url(#path-5-inside-1)"/>
</svg>
