<svg width="105" height="63" viewBox="0 0 105 63" fill="none" xmlns="http://www.w3.org/2000/svg">
<line y1="11.5" x2="105" y2="11.5" stroke-width="5"/>
<path d="M32.5 11.5C32.5 16.2784 28.2232 20.5 22.5 20.5C16.7768 20.5 12.5 16.2784 12.5 11.5C12.5 6.7216 16.7768 2.5 22.5 2.5C28.2232 2.5 32.5 6.7216 32.5 11.5Z" fill="#F7F5F5" stroke="#262736" stroke-width="5"/>
<line y1="31.5" x2="105" y2="31.5" stroke-width="5"/>
<path d="M92.5 31.5C92.5 36.2784 88.2232 40.5 82.5 40.5C76.7768 40.5 72.5 36.2784 72.5 31.5C72.5 26.7216 76.7768 22.5 82.5 22.5C88.2232 22.5 92.5 26.7216 92.5 31.5Z" fill="#F7F5F5" stroke="#262736" stroke-width="5"/>
<line y1="51.5" x2="105" y2="51.5" stroke-width="5"/>
<path d="M51.5 51.5C51.5 56.2784 47.2232 60.5 41.5 60.5C35.7768 60.5 31.5 56.2784 31.5 51.5C31.5 46.7216 35.7768 42.5 41.5 42.5C47.2232 42.5 51.5 46.7216 51.5 51.5Z" fill="#F7F5F5" stroke="#262736" stroke-width="5"/>
</svg>
