<svg width="50" height="37" viewBox="0 0 50 37" fill="none" xmlns="http://www.w3.org/2000/svg">
<path d="M18.75 18.5C21.2364 18.5 23.621 17.5254 25.3791 15.7907C27.1373 14.056 28.125 11.7033 28.125 9.25C28.125 6.79675 27.1373 4.44397 25.3791 2.70926C23.621 0.974551 21.2364 0 18.75 0C16.2636 0 13.879 0.974551 12.1209 2.70926C10.3627 4.44397 9.375 6.79675 9.375 9.25C9.375 11.7033 10.3627 14.056 12.1209 15.7907C13.879 17.5254 16.2636 18.5 18.75 18.5ZM3.125 37C3.125 37 0 37 0 33.9167C0 30.8333 3.125 21.5833 18.75 21.5833C34.375 21.5833 37.5 30.8333 37.5 33.9167C37.5 37 34.375 37 34.375 37H3.125ZM34.375 4.625C34.375 4.21612 34.5396 3.824 34.8326 3.53488C35.1257 3.24576 35.5231 3.08333 35.9375 3.08333H48.4375C48.8519 3.08333 49.2493 3.24576 49.5424 3.53488C49.8354 3.824 50 4.21612 50 4.625C50 5.03388 49.8354 5.426 49.5424 5.71512C49.2493 6.00424 48.8519 6.16667 48.4375 6.16667H35.9375C35.5231 6.16667 35.1257 6.00424 34.8326 5.71512C34.5396 5.426 34.375 5.03388 34.375 4.625ZM35.9375 12.3333C35.5231 12.3333 35.1257 12.4958 34.8326 12.7849C34.5396 13.074 34.375 13.4661 34.375 13.875C34.375 14.2839 34.5396 14.676 34.8326 14.9651C35.1257 15.2542 35.5231 15.4167 35.9375 15.4167H48.4375C48.8519 15.4167 49.2493 15.2542 49.5424 14.9651C49.8354 14.676 50 14.2839 50 13.875C50 13.4661 49.8354 13.074 49.5424 12.7849C49.2493 12.4958 48.8519 12.3333 48.4375 12.3333H35.9375ZM42.1875 21.5833C41.7731 21.5833 41.3757 21.7458 41.0826 22.0349C40.7896 22.324 40.625 22.7161 40.625 23.125C40.625 23.5339 40.7896 23.926 41.0826 24.2151C41.3757 24.5042 41.7731 24.6667 42.1875 24.6667H48.4375C48.8519 24.6667 49.2493 24.5042 49.5424 24.2151C49.8354 23.926 50 23.5339 50 23.125C50 22.7161 49.8354 22.324 49.5424 22.0349C49.2493 21.7458 48.8519 21.5833 48.4375 21.5833H42.1875ZM42.1875 30.8333C41.7731 30.8333 41.3757 30.9958 41.0826 31.2849C40.7896 31.574 40.625 31.9661 40.625 32.375C40.625 32.7839 40.7896 33.176 41.0826 33.4651C41.3757 33.7542 41.7731 33.9167 42.1875 33.9167H48.4375C48.8519 33.9167 49.2493 33.7542 49.5424 33.4651C49.8354 33.176 50 32.7839 50 32.375C50 31.9661 49.8354 31.574 49.5424 31.2849C49.2493 30.9958 48.8519 30.8333 48.4375 30.8333H42.1875Z" fill="#E8A937"/>
</svg>
