<svg width="48" height="37" viewBox="0 0 48 37" fill="none" xmlns="http://www.w3.org/2000/svg">
<path d="M5.3959 4.11111H21.5836C23.0675 4.11111 24.2816 3.18611 24.2816 2.05556C24.2816 0.925 23.0675 0 21.5836 0H5.3959C2.42816 0 0 1.85 0 4.11111V32.8889C0 35.15 2.42816 37 5.3959 37H21.5836C23.0675 37 24.2816 36.075 24.2816 34.9444C24.2816 33.8139 23.0675 32.8889 21.5836 32.8889H5.3959V4.11111Z" fill="#E8A937"/>
<path d="M47.6188 17.7806L40.0915 12.0456C39.2282 11.3878 37.7713 11.84 37.7713 12.765V16.4444H18.8856C17.4018 16.4444 16.1877 17.3694 16.1877 18.5C16.1877 19.6306 17.4018 20.5556 18.8856 20.5556H37.7713V24.235C37.7713 25.16 39.2282 25.6122 40.0646 24.9544L47.5918 19.2194C48.1314 18.8289 48.1314 18.1711 47.6188 17.7806Z" fill="#E8A937"/>
</svg>
