<svg width="59" height="39" viewBox="0 0 59 39" fill="none" xmlns="http://www.w3.org/2000/svg">
<path d="M27.5 34L28.0237 35.4056L27.4654 35.6136L26.9165 35.3819L27.5 34ZM53.6236 23.1358C54.3771 23.4802 54.7086 24.3702 54.3642 25.1236L48.7515 37.4015C48.407 38.155 47.517 38.4865 46.7636 38.1421C46.0102 37.7977 45.6786 36.9077 46.023 36.1543L51.0121 25.2406L40.0985 20.2515C39.345 19.907 39.0135 19.017 39.3579 18.2636C39.7023 17.5102 40.5923 17.1786 41.3457 17.523L53.6236 23.1358ZM5.58346 23.1181L28.0835 32.6181L26.9165 35.3819L4.41654 25.8819L5.58346 23.1181ZM26.9763 32.5944L52.4763 23.0944L53.5237 25.9056L28.0237 35.4056L26.9763 32.5944Z" fill="#E8A937"/>
<g filter="url(#filter0_d)">
<path d="M31.5 5L30.9763 3.59438L31.5346 3.38639L32.0835 3.61813L31.5 5ZM5.37636 15.8642C4.62293 15.5198 4.29136 14.6298 4.63579 13.8764L10.2485 1.59845C10.593 0.845022 11.483 0.513456 12.2364 0.857883C12.9898 1.20231 13.3214 2.0923 12.977 2.84573L7.98785 13.7594L18.9015 18.7485C19.655 19.093 19.9865 19.983 19.6421 20.7364C19.2977 21.4898 18.4077 21.8214 17.6543 21.477L5.37636 15.8642ZM53.4165 15.8819L30.9165 6.38187L32.0835 3.61813L54.5835 13.1181L53.4165 15.8819ZM32.0237 6.40562L6.52366 15.9056L5.47634 13.0944L30.9763 3.59438L32.0237 6.40562Z" fill="#E8A937"/>
</g>
<defs>
<filter id="filter0_d" x="0.499634" y="0.721741" width="58.0838" height="28.8914" filterUnits="userSpaceOnUse" color-interpolation-filters="sRGB">
<feFlood flood-opacity="0" result="BackgroundImageFix"/>
<feColorMatrix in="SourceAlpha" type="matrix" values="0 0 0 0 0 0 0 0 0 0 0 0 0 0 0 0 0 0 127 0"/>
<feOffset dy="4"/>
<feGaussianBlur stdDeviation="2"/>
<feColorMatrix type="matrix" values="0 0 0 0 0 0 0 0 0 0 0 0 0 0 0 0 0 0 0.25 0"/>
<feBlend mode="normal" in2="BackgroundImageFix" result="effect1_dropShadow"/>
<feBlend mode="normal" in="SourceGraphic" in2="effect1_dropShadow" result="shape"/>
</filter>
</defs>
</svg>
